<mxfile host="app.diagrams.net" modified="2023-04-19T10:46:52.461Z" agent="Mozilla/5.0 (Macintosh; Intel Mac OS X 10.15; rv:109.0) Gecko/20100101 Firefox/112.0" etag="N2uOPmSORIqxwTBrYxL7" version="21.1.7" type="github">
  <diagram id="eZZpxYdVpgs_wxXjZtk5" name="Page-1">
    <mxGraphModel dx="954" dy="533" grid="1" gridSize="10" guides="1" tooltips="1" connect="1" arrows="1" fold="1" page="1" pageScale="1" pageWidth="827" pageHeight="1169" math="0" shadow="0">
      <root>
        <mxCell id="0" />
        <mxCell id="1" parent="0" />
        <mxCell id="1gp9kKd6AoPWOsmjoUxT-1" value="Начало" style="strokeWidth=1;html=1;shape=mxgraph.flowchart.terminator;whiteSpace=wrap;fontFamily=Times New Roman;fontSize=15;fontStyle=0" parent="1" vertex="1">
          <mxGeometry x="90" y="70" width="100" height="60" as="geometry" />
        </mxCell>
        <mxCell id="1gp9kKd6AoPWOsmjoUxT-2" value="Ввод AB, BC, CD,&lt;br style=&quot;font-size: 15px;&quot;&gt;AC, AD, DE, AE" style="shape=parallelogram;perimeter=parallelogramPerimeter;whiteSpace=wrap;html=1;fixedSize=1;strokeWidth=1;fontFamily=Times New Roman;fontSize=15;fontStyle=0" parent="1" vertex="1">
          <mxGeometry x="60" y="150" width="160" height="60" as="geometry" />
        </mxCell>
        <mxCell id="1gp9kKd6AoPWOsmjoUxT-3" value="s1 = TriangleArea(AB, BC, AC)" style="shape=process;whiteSpace=wrap;html=1;backgroundOutline=1;strokeWidth=1;fontFamily=Times New Roman;fontSize=15;fontStyle=0" parent="1" vertex="1">
          <mxGeometry x="244" y="150" width="216" height="60" as="geometry" />
        </mxCell>
        <mxCell id="1gp9kKd6AoPWOsmjoUxT-8" value="s1 + s2 + s3" style="shape=parallelogram;perimeter=parallelogramPerimeter;whiteSpace=wrap;html=1;fixedSize=1;strokeWidth=1;fontFamily=Times New Roman;fontSize=15;fontStyle=0" parent="1" vertex="1">
          <mxGeometry x="80" y="310" width="120" height="60" as="geometry" />
        </mxCell>
        <mxCell id="1gp9kKd6AoPWOsmjoUxT-9" value="Остановка" style="strokeWidth=1;html=1;shape=mxgraph.flowchart.terminator;whiteSpace=wrap;fontFamily=Times New Roman;fontSize=15;fontStyle=0" parent="1" vertex="1">
          <mxGeometry x="90" y="390" width="100" height="60" as="geometry" />
        </mxCell>
        <mxCell id="1gp9kKd6AoPWOsmjoUxT-10" value="TriangleArea(a, b, c)" style="strokeWidth=1;html=1;shape=mxgraph.flowchart.terminator;whiteSpace=wrap;fontFamily=Times New Roman;fontSize=15;fontStyle=0" parent="1" vertex="1">
          <mxGeometry x="506.25" y="110" width="137.5" height="60" as="geometry" />
        </mxCell>
        <mxCell id="1gp9kKd6AoPWOsmjoUxT-11" value="возврат S" style="strokeWidth=1;html=1;shape=mxgraph.flowchart.terminator;whiteSpace=wrap;fontFamily=Times New Roman;fontSize=15;fontStyle=0" parent="1" vertex="1">
          <mxGeometry x="525" y="350" width="100" height="60" as="geometry" />
        </mxCell>
        <mxCell id="1gp9kKd6AoPWOsmjoUxT-12" value="p = (a + b + c)" style="html=1;dashed=0;whitespace=wrap;strokeWidth=1;fontFamily=Times New Roman;fontSize=15;fontStyle=0" parent="1" vertex="1">
          <mxGeometry x="490" y="190" width="170" height="60" as="geometry" />
        </mxCell>
        <mxCell id="1gp9kKd6AoPWOsmjoUxT-13" value="&lt;div style=&quot;font-size: 15px;&quot;&gt;S = &lt;br style=&quot;font-size: 15px;&quot;&gt;&lt;/div&gt;&lt;div style=&quot;font-size: 15px;&quot;&gt;(p(p - a)(p - b)(p - c))&lt;sup style=&quot;font-size: 15px;&quot;&gt;1/2&lt;/sup&gt;&lt;/div&gt;" style="html=1;dashed=0;whitespace=wrap;strokeWidth=1;fontFamily=Times New Roman;fontSize=15;fontStyle=0" parent="1" vertex="1">
          <mxGeometry x="490" y="270" width="170" height="60" as="geometry" />
        </mxCell>
        <mxCell id="1gp9kKd6AoPWOsmjoUxT-14" value="s2 = TriangleArea(AC, CD, AD)" style="shape=process;whiteSpace=wrap;html=1;backgroundOutline=1;strokeWidth=1;fontFamily=Times New Roman;fontSize=15;fontStyle=0" parent="1" vertex="1">
          <mxGeometry x="244" y="230" width="216" height="60" as="geometry" />
        </mxCell>
        <mxCell id="1gp9kKd6AoPWOsmjoUxT-15" value="s3&amp;nbsp; =TrianleArea(AD, DE, AE)" style="shape=process;whiteSpace=wrap;html=1;backgroundOutline=1;strokeWidth=1;fontFamily=Times New Roman;fontSize=15;fontStyle=0" parent="1" vertex="1">
          <mxGeometry x="244" y="310" width="216" height="60" as="geometry" />
        </mxCell>
        <mxCell id="1gp9kKd6AoPWOsmjoUxT-16" value="" style="endArrow=none;html=1;entryX=0.5;entryY=1;entryDx=0;entryDy=0;entryPerimeter=0;exitX=0.5;exitY=0;exitDx=0;exitDy=0;strokeWidth=1;fontFamily=Times New Roman;fontSize=15;fontStyle=0" parent="1" source="1gp9kKd6AoPWOsmjoUxT-2" target="1gp9kKd6AoPWOsmjoUxT-1" edge="1">
          <mxGeometry width="50" height="50" relative="1" as="geometry">
            <mxPoint x="220" y="140" as="sourcePoint" />
            <mxPoint x="270" y="90" as="targetPoint" />
          </mxGeometry>
        </mxCell>
        <mxCell id="1gp9kKd6AoPWOsmjoUxT-18" value="" style="endArrow=none;html=1;entryX=1;entryY=0.5;entryDx=0;entryDy=0;exitX=0;exitY=0.5;exitDx=0;exitDy=0;strokeWidth=1;fontFamily=Times New Roman;fontSize=15;fontStyle=0" parent="1" source="1gp9kKd6AoPWOsmjoUxT-3" target="1gp9kKd6AoPWOsmjoUxT-2" edge="1">
          <mxGeometry width="50" height="50" relative="1" as="geometry">
            <mxPoint x="140" y="170" as="sourcePoint" />
            <mxPoint x="140" y="150" as="targetPoint" />
          </mxGeometry>
        </mxCell>
        <mxCell id="1gp9kKd6AoPWOsmjoUxT-19" value="" style="endArrow=none;html=1;entryX=0.5;entryY=1;entryDx=0;entryDy=0;exitX=0.5;exitY=0;exitDx=0;exitDy=0;strokeWidth=1;fontFamily=Times New Roman;fontSize=15;fontStyle=0" parent="1" source="1gp9kKd6AoPWOsmjoUxT-14" target="1gp9kKd6AoPWOsmjoUxT-3" edge="1">
          <mxGeometry width="50" height="50" relative="1" as="geometry">
            <mxPoint x="184" y="180" as="sourcePoint" />
            <mxPoint x="184" y="160" as="targetPoint" />
          </mxGeometry>
        </mxCell>
        <mxCell id="1gp9kKd6AoPWOsmjoUxT-20" value="" style="endArrow=none;html=1;entryX=0.5;entryY=1;entryDx=0;entryDy=0;exitX=0.5;exitY=0;exitDx=0;exitDy=0;strokeWidth=1;fontFamily=Times New Roman;fontSize=15;fontStyle=0" parent="1" source="1gp9kKd6AoPWOsmjoUxT-15" target="1gp9kKd6AoPWOsmjoUxT-14" edge="1">
          <mxGeometry width="50" height="50" relative="1" as="geometry">
            <mxPoint x="194" y="190" as="sourcePoint" />
            <mxPoint x="194" y="170" as="targetPoint" />
          </mxGeometry>
        </mxCell>
        <mxCell id="1gp9kKd6AoPWOsmjoUxT-21" value="" style="endArrow=none;html=1;exitX=0.5;exitY=0;exitDx=0;exitDy=0;exitPerimeter=0;strokeWidth=1;fontFamily=Times New Roman;fontSize=15;fontStyle=0" parent="1" source="1gp9kKd6AoPWOsmjoUxT-9" target="1gp9kKd6AoPWOsmjoUxT-8" edge="1">
          <mxGeometry width="50" height="50" relative="1" as="geometry">
            <mxPoint x="280" y="320" as="sourcePoint" />
            <mxPoint x="280" y="300" as="targetPoint" />
          </mxGeometry>
        </mxCell>
        <mxCell id="1gp9kKd6AoPWOsmjoUxT-23" value="" style="endArrow=none;html=1;entryX=0.5;entryY=1;entryDx=0;entryDy=0;entryPerimeter=0;strokeWidth=1;fontFamily=Times New Roman;fontSize=15;fontStyle=0" parent="1" source="1gp9kKd6AoPWOsmjoUxT-12" target="1gp9kKd6AoPWOsmjoUxT-10" edge="1">
          <mxGeometry width="50" height="50" relative="1" as="geometry">
            <mxPoint x="380" y="370" as="sourcePoint" />
            <mxPoint x="380" y="350" as="targetPoint" />
          </mxGeometry>
        </mxCell>
        <mxCell id="1gp9kKd6AoPWOsmjoUxT-24" value="" style="endArrow=none;html=1;entryX=0.5;entryY=1;entryDx=0;entryDy=0;exitX=0.5;exitY=0;exitDx=0;exitDy=0;strokeWidth=1;fontFamily=Times New Roman;fontSize=15;fontStyle=0" parent="1" source="1gp9kKd6AoPWOsmjoUxT-13" target="1gp9kKd6AoPWOsmjoUxT-12" edge="1">
          <mxGeometry width="50" height="50" relative="1" as="geometry">
            <mxPoint x="550" y="200" as="sourcePoint" />
            <mxPoint x="550" y="180" as="targetPoint" />
          </mxGeometry>
        </mxCell>
        <mxCell id="1gp9kKd6AoPWOsmjoUxT-25" value="" style="endArrow=none;html=1;entryX=0.5;entryY=1;entryDx=0;entryDy=0;exitX=0.5;exitY=0;exitDx=0;exitDy=0;exitPerimeter=0;strokeWidth=1;fontFamily=Times New Roman;fontSize=15;fontStyle=0" parent="1" source="1gp9kKd6AoPWOsmjoUxT-11" target="1gp9kKd6AoPWOsmjoUxT-13" edge="1">
          <mxGeometry width="50" height="50" relative="1" as="geometry">
            <mxPoint x="560" y="210" as="sourcePoint" />
            <mxPoint x="560" y="190" as="targetPoint" />
          </mxGeometry>
        </mxCell>
        <mxCell id="1gp9kKd6AoPWOsmjoUxT-26" value="" style="endArrow=classicThin;html=1;entryX=1;entryY=0.5;entryDx=0;entryDy=0;exitX=0;exitY=0.5;exitDx=0;exitDy=0;strokeWidth=1;endFill=1;fontFamily=Times New Roman;fontSize=15;fontStyle=0" parent="1" source="1gp9kKd6AoPWOsmjoUxT-15" target="1gp9kKd6AoPWOsmjoUxT-8" edge="1">
          <mxGeometry width="50" height="50" relative="1" as="geometry">
            <mxPoint x="240" y="530" as="sourcePoint" />
            <mxPoint x="290" y="480" as="targetPoint" />
          </mxGeometry>
        </mxCell>
      </root>
    </mxGraphModel>
  </diagram>
</mxfile>
